<svg width="122" height="122" viewBox="0 0 122 122" fill="none" xmlns="http://www.w3.org/2000/svg">
<path d="M67.1636 1.88867L67.021 2.03418L66.9243 2.13184L66.7944 2.26465L66.6099 2.28027L66.5054 2.28809L66.3716 2.42578V8.14258L66.229 8.28809L66.1323 8.38574L66.0327 8.48828L65.894 8.52148L65.3892 8.64355L65.3315 8.6582H64.8062L64.6792 8.57129L64.6069 8.52246L64.5337 8.47266L64.4819 8.40137L61.4771 4.22461L61.4038 4.24805V6.64258L61.5298 6.77832H62.2505L62.4009 6.96973L62.4966 7.0918L62.604 7.22754V8.16016L62.4966 8.2959L62.4009 8.41797L62.2505 8.60938H59.0054L58.855 8.41797L58.7583 8.2959L58.6519 8.16016V7.19629L58.8911 6.95215L59.022 6.81934L59.2085 6.80469L59.3335 6.79395L59.4683 6.65723V2.41699L59.3657 2.30664H59.0054L58.855 2.11523L58.7583 1.99316L58.6519 1.85742V0.893555L58.8911 0.649414L59.0386 0.5H60.8706L60.9312 0.515625L61.0269 0.540039L61.2036 0.584961L61.3101 0.733398L64.4077 5.05176L64.4595 5.03516V2.4502L64.3423 2.33105H63.6577L63.5093 2.10449L63.4136 1.95801L63.3315 1.83301V0.893555L63.5708 0.649414L63.7183 0.5H66.7778L66.9243 0.649414L67.021 0.74707L67.1636 0.893555V1.88867Z" fill="white" stroke="black"/>
<path d="M61.6438 119.496L61.7366 119.627C62.0016 119.662 62.2817 119.693 62.6321 119.693C63.2516 119.693 63.6302 119.602 63.8411 119.474C64.0055 119.373 64.0998 119.234 64.0999 118.948C64.0999 118.703 64.0363 118.6 63.9456 118.526C63.8184 118.423 63.5605 118.316 63.0452 118.246H63.0432L61.9875 118.1V118.099C61.2033 117.994 60.5464 117.757 60.0803 117.338C59.5971 116.903 59.3723 116.32 59.3723 115.65C59.3724 114.841 59.7205 114.184 60.3547 113.75C60.9643 113.333 61.7977 113.147 62.7522 113.147C63.8266 113.147 64.9468 113.405 65.7327 113.846L65.8879 113.933L65.9534 114.099L66.0012 114.221L66.0745 114.406L66.0002 114.59L65.7834 115.128L65.7249 115.275L65.592 115.361L65.2258 115.598L65.1077 116.046L65.0559 116.24L64.885 116.345L64.6047 116.516L64.4202 116.484L63.844 116.387L63.6155 116.348L63.4973 116.148L63.425 116.026L63.3391 115.88L63.3596 115.711L63.4299 115.133L63.3167 114.987C63.1468 114.965 62.9513 114.953 62.7756 114.953C62.1718 114.953 61.7961 115.043 61.5872 115.162C61.4191 115.258 61.3558 115.369 61.3557 115.552C61.3557 115.784 61.4159 115.863 61.5012 115.926C61.6372 116.026 61.9037 116.123 62.4241 116.207H62.426L63.4573 116.378H63.4563C64.251 116.496 64.9117 116.748 65.3782 117.18C65.8612 117.627 66.0842 118.221 66.0842 118.9C66.0841 119.69 65.7469 120.366 65.1184 120.828C64.5067 121.278 63.6574 121.5 62.6555 121.5C61.4017 121.5 60.3939 121.32 59.3811 120.87L59.2346 120.806L59.1536 120.667L59.0813 120.545L58.9592 120.339L59.0442 120.114L59.2844 119.48L59.3391 119.334L59.467 119.245L59.8235 118.997L59.884 118.664L59.9231 118.443L60.1155 118.325L60.3557 118.179H61.3186L61.4661 118.405L61.5618 118.552L61.6438 118.677V119.496Z" fill="white" stroke="black"/>
<path d="M116.82 58.7858V59.6305L116.946 59.7672H119.047L119.042 59.7389L118.881 58.7721L118.754 58.6666H116.937L116.82 58.7858ZM121.26 58.1617L121.132 58.3043L120.774 58.7037L120.85 59.5123L120.872 59.7438L120.708 59.9088L120.613 60.0065L120.49 60.1315L120.317 60.1529L119.716 60.2262L119.543 60.2467L119.484 60.2106V61.149L119.377 61.2848L119.281 61.4068L119.131 61.5983H116.937L116.82 61.7174V62.9693L116.938 63.0895H119.05L119.197 62.9723L119.452 61.5709L119.48 61.4186L119.587 61.3092L119.683 61.2115L119.864 61.0279L120.118 61.068L120.742 61.1656L120.905 61.191L121.021 61.3092L121.117 61.4068L121.288 61.5807L121.255 61.8219L121.09 63.0826L121.396 63.4801L121.5 63.6149V64.5846L121.316 64.735L121.196 64.8326L121.058 64.9449H114.462L114.325 64.8326L114.205 64.735L114.02 64.5846V63.4986L114.205 63.3483L114.325 63.2506L114.462 63.1383H114.758L114.884 63.0016V58.7779L114.758 58.6422H114.374L114.223 58.4508L114.126 58.3287L114.02 58.193V57.1959L114.205 57.0455L114.325 56.9479L114.462 56.8356H120.818L120.956 56.9479L121.076 57.0455L121.26 57.1959V58.1617Z" fill="white" stroke="black"/>
<path d="M12.252 57.68L12.1455 57.8157L12.0488 57.9378L11.8994 58.1292H11.584L11.459 58.2239L9.58789 64.0364L9.54004 64.1848L9.41504 64.2805L9.31934 64.3538L9.18555 64.4563H7.83887L7.7041 64.3538L7.6084 64.2805L7.47559 64.179L7.43066 64.0179L6.40527 60.3518H6.37109L5.3457 64.0179L5.29297 64.2073L5.125 64.3098L4.88477 64.4563H3.59082L3.45703 64.3538L3.36035 64.2805L3.23633 64.1848L3.18848 64.0364L1.31641 58.2239L1.19141 58.1292H0.852539L0.703125 57.9378L0.606445 57.8157L0.5 57.68V56.7161L0.739258 56.472L0.886719 56.3225H3.89746L4.04492 56.472L4.28418 56.7161V57.68L4.17676 57.8157L4.08105 57.9378L3.93066 58.1292H3.49512L3.39453 58.2766L4.20508 61.013H4.27051L5.41504 56.9788L5.45996 56.8196L5.59277 56.718L5.68848 56.6448L5.82324 56.5423H7.00098L7.13574 56.6448L7.23145 56.718L7.36328 56.8196L7.40918 56.9788L8.55371 61.013H8.62109L9.45117 58.2747L9.35254 58.1292H9.07031L8.92285 57.9788L8.80371 57.8567L8.66016 57.7112V56.6829L8.84473 56.5325L8.96387 56.4348L9.10254 56.3225H11.8652L12.0127 56.472L12.252 56.7161V57.68Z" fill="white" stroke="black"/>
<path d="M100.291 90.2957L100.387 90.3201L100.623 90.3797L100.721 90.6023L100.938 91.0906L101 91.2322L100.972 91.3855L100.912 91.7L101.042 91.8982L101.154 92.0691L101.115 92.2693L101.091 92.3914L101.062 92.5379L100.956 92.6453L100.645 92.9627L100.583 93.0242C100.917 92.8404 101.25 92.7271 101.577 92.7029C102.106 92.6639 102.562 92.8616 102.918 93.2332H102.919C102.92 93.2343 102.921 93.236 102.922 93.2371C102.925 93.2406 102.93 93.2434 102.933 93.2469H102.932C103.401 93.7162 103.576 94.3076 103.455 94.9334C103.34 95.5317 102.964 96.1198 102.427 96.6678L102.428 96.6687C101.827 97.3074 101.055 97.8035 100.353 98.0037L100.164 98.0574L99.9895 97.9686L99.8928 97.9197L99.7268 97.8348L99.6565 97.6609L99.4885 97.2459L99.4329 97.1082L99.4612 96.9617L99.5198 96.6619L99.3557 96.3875L99.2493 96.2107L99.2981 96.0105L99.3225 95.9129L99.345 95.8172C99.1402 95.8865 98.9352 95.9284 98.7297 95.9363C98.1736 95.9578 97.6874 95.736 97.2913 95.3328C96.846 94.8795 96.6501 94.2887 96.7454 93.6502C96.8379 93.0303 97.1971 92.407 97.7717 91.8221L97.7776 91.8152C98.4908 91.1152 99.1667 90.6638 99.9719 90.3201L100.127 90.2537L100.291 90.2957ZM101.597 94.4539C101.504 94.4676 101.327 94.5428 100.999 94.7928L100.99 94.8006L100.327 95.2811L100.412 95.2986L100.592 95.3348L100.705 95.4793L100.968 95.8133L101.012 95.8201C101.112 95.7367 101.215 95.6456 101.299 95.5603C101.64 95.2136 101.792 94.9618 101.838 94.7986C101.859 94.7259 101.855 94.6839 101.849 94.66C101.843 94.6367 101.828 94.6003 101.78 94.5506C101.717 94.487 101.677 94.4653 101.658 94.4578C101.645 94.4524 101.629 94.4491 101.597 94.4539ZM99.4172 92.5828C99.2662 92.7055 99.1149 92.8342 98.9407 93.0115C98.6015 93.3567 98.4564 93.607 98.4163 93.7732C98.3887 93.888 98.4019 93.983 98.5276 94.1131C98.6586 94.2369 98.7233 94.239 98.7698 94.2342C98.8599 94.2249 99.0363 94.1594 99.3518 93.907L99.3606 93.9002L100.032 93.3875C100.153 93.2958 100.273 93.2118 100.393 93.1365L100.204 93.1053L100.061 93.0809L99.9006 93.0535L99.7874 92.9383L99.4426 92.5877L99.4172 92.5828Z" fill="white" stroke="black"/>
<path d="M96.3008 99.6078L96.2705 99.6381L96.7764 99.9691L96.8232 99.9662L97.748 99.0063V98.9428L97.3848 98.56H97.3301L96.3008 99.6078ZM94.3926 97.8139L94.3877 97.8969L94.9883 98.8022V98.5883L95.1318 98.4428L96.1641 97.391V97.3148L95.5459 96.7035H95.5029L94.3926 97.8139ZM96.9482 95.1674L96.8271 95.308L96.7803 95.3617V95.4369L99.0098 97.7065H99.0664L99.1152 97.6625L99.2578 97.5356H99.7783L99.9248 97.6859L100.261 98.0277L100.404 98.1732V98.6801L100.261 98.8256L96.9004 102.246L96.7539 102.396H96.2383L96.0918 102.246L95.7793 101.929L95.6523 101.799L95.6377 101.619L95.6064 101.245L95.1729 100.891L94.9883 100.741V100.174L95.1055 100.035L95.3936 99.6928L95.4658 99.6059L95.1318 99.266L95.0762 99.2084V99.4193L94.8945 99.5697L94.5107 99.8871L94.3721 100.001H93.8223L93.6719 99.8012L93.0947 99.0307L92.7373 98.9682L92.5908 98.9418L92.4834 98.8412L92.1953 98.5727L92.0361 98.4242V97.8549L92.1807 97.7084L95.6611 94.1908L95.8076 94.0424H96.3457L96.4932 94.1918L96.8047 94.5092L96.9482 94.6557V95.1674Z" fill="white" stroke="black"/>
<path d="M100.404 23.3271L100.273 23.4707L99.9614 23.8125L99.813 23.9755H99.2847L99.1431 23.8525L99.1157 23.8291H99.0581L96.0845 26.8554L95.938 27.0048H95.4829L95.3579 26.9228L95.022 26.7031L94.9771 26.6738L94.939 26.6357L94.771 26.4648L94.7368 26.4296L94.7095 26.3876L94.6616 26.3144L94.5571 26.1552L94.5854 25.9668L95.1519 22.1855L94.0679 23.289V23.3535L94.3188 23.625L94.4917 23.8115L94.4429 24.0605L94.4185 24.1826L94.3911 24.3203L94.2974 24.4238L93.9849 24.7656L93.8364 24.9287H93.2817L93.1343 24.7734L91.6216 23.1855L91.4839 23.04V22.5605L91.6011 22.4209L91.8892 22.0791L92.0396 21.9003H92.5825L92.7241 22.0273L92.7739 22.0712H92.8325L95.0835 19.8007V19.746L95.0356 19.6972L94.8921 19.5517V19.0097L95.0483 18.8613L95.3843 18.5439L95.5288 18.4072H96.0298L96.1753 18.5517L97.064 19.4316L97.1499 19.5166L97.187 19.6308L97.2114 19.7041L97.2485 19.8173L97.23 19.9355L96.6362 23.8398L97.8442 22.6103V22.5664L97.6392 22.372L97.4478 22.1904L97.4907 21.9287L97.5142 21.7822L97.5415 21.6162L97.6646 21.5L98.0005 21.1826L98.145 21.0459H98.6499L98.7964 21.1953L100.26 22.6855L100.404 22.831V23.3271Z" fill="white" stroke="black"/>
<path d="M98.7959 28.0977V28.1349L99.9121 29.2901L99.9502 29.2931L100.833 28.6661H100.634L100.487 28.5196L99.4326 27.4688H99.3975L98.7959 28.0977ZM100.596 26.2257V26.296L101.646 27.3438L101.978 26.8448L101.971 26.7804L101.038 25.8321H100.996L100.596 26.2257ZM104.364 27.381L104.235 27.5235L103.972 27.8165L103.839 27.964L103.641 27.9806L103.25 28.0118L102.882 28.4601L102.731 28.6417H102.231L102.097 28.5392L101.713 28.2462L101.638 28.1886L101.28 28.5284L101.226 28.5792L101.228 28.5802L101.348 28.6046L101.536 28.6427L101.65 28.7979L101.938 29.1886L102.069 29.3663L102.026 29.5821L102.003 29.7042L101.967 29.8888L101.817 30.004L101.093 30.5606L101.048 30.9171L101.025 31.0948L100.895 31.2179L100.582 31.5108L100.438 31.6466H99.9355L99.7891 31.4981L96.3086 27.9806L96.1641 27.8341V27.2911L96.3203 27.1427L96.6562 26.8253L96.8008 26.6886H97.2861L97.4287 26.8155L97.4785 26.8595H97.5332L99.7744 24.5558L99.7764 24.5196L99.7637 24.5089L99.5957 24.3595V23.8087L99.7393 23.6622L100.075 23.3204L100.223 23.171H100.763L100.91 23.3224L104.222 26.7179L104.364 26.8634V27.381Z" fill="white" stroke="black"/>
<path d="M25.7397 24.7573L25.6226 24.8969L25.5962 24.9272V25.0063L28.5503 28.0366L28.6538 28.144L28.6831 28.2895L28.7065 28.4116L28.7476 28.6206L28.6255 28.7954L28.3853 29.1372L28.3501 29.187L28.3052 29.227L28.1372 29.3735L28.062 29.4389L27.9683 29.4702L27.897 29.4946L27.7817 29.5336L27.6616 29.5161L23.9312 28.9545L25.0425 30.0844H25.0874L25.3501 29.8325L25.5317 29.6586L25.7798 29.7006L25.9233 29.7251L26.0835 29.7524L26.1968 29.8676L26.5083 30.185L26.6519 30.3315V30.8354L26.5112 30.9809L24.9751 32.5688L24.8276 32.7211H24.2866L24.1392 32.5717L23.8276 32.2543L23.6841 32.1088V31.5747L23.8013 31.435L23.8276 31.4038V31.3256L21.5864 29.0444H21.5737L21.5405 29.0786L21.3501 29.2719L21.0845 29.2182L20.9644 29.1938L20.8247 29.1655L20.7202 29.0668L20.3843 28.7495L20.228 28.601V28.0551L20.3765 27.9086L21.2642 27.0288L21.3462 26.9477L21.4556 26.9106L21.5278 26.8862L21.644 26.8471L21.7661 26.8657L25.5786 27.4663L24.3813 26.2475H24.3354L24.1206 26.4516L23.9312 26.6313L23.6763 26.5795L23.5562 26.5551L23.4067 26.5249L23.2993 26.4155L22.9878 26.0981L22.8442 25.9516V25.4233L22.9849 25.2778L24.4243 23.7876L24.5718 23.6352H25.1138L25.2603 23.7846L25.5972 24.1264L25.7397 24.2729V24.7573Z" fill="white" stroke="black"/>
<path d="M32.1235 18.3057L31.981 18.4512L31.9536 18.4776L31.9478 18.5274L34.063 22.7637L34.1157 22.8692V23.295L33.9653 23.4424L33.3892 24.0049L33.2935 24.0977L33.1636 24.1309L33.0669 24.1553L32.8735 24.2051L32.6997 24.1075L30.4146 22.8262L31.6792 25.1416L31.7397 25.254V25.6836L31.5972 25.8291L31.021 26.4151L30.8735 26.5655H30.4722L30.3647 26.5108L26.1831 24.3809L26.1226 24.3887L26.1011 24.4122L25.9536 24.5616H25.438L25.2915 24.4122L24.9556 24.0704L24.812 23.9239V23.3936L24.9556 23.2471L26.395 21.7813L26.5425 21.6319H27.0923L27.2417 21.795L27.5532 22.1368L27.6841 22.2803V22.7627L27.5571 22.9043L27.478 22.9922L27.4888 23.0518L29.1343 23.9405L27.7046 21.295L27.644 21.1836V20.7549L27.7876 20.6084L28.2437 20.1446L28.3413 20.045L28.4771 20.0108L28.5728 19.9864L28.7661 19.9366L28.9399 20.0342L31.5435 21.4922L30.6665 19.7911L30.6431 19.7872L30.6362 19.794L30.4946 19.92H29.9507L29.8032 19.7706L29.4917 19.4532L29.3481 19.3067V18.7754L29.4917 18.6299L30.811 17.2862L30.9585 17.1368H31.5327L31.6812 17.2999L31.9937 17.6416L32.1235 17.7852V18.3057Z" fill="white" stroke="black"/>
<path d="M31.573 95.767C32.1131 95.8456 32.6617 96.1268 33.196 96.5648L33.4246 96.7621L33.4382 96.7748L33.4509 96.7885C34.1386 97.5144 34.582 98.2007 34.9187 99.018L34.9802 99.1693L34.9412 99.3275L34.9177 99.4252L34.8601 99.6606L34.6404 99.7611L34.1599 99.9809L34.0144 100.047L33.8572 100.017L33.5564 99.9584L33.3689 100.086L33.1941 100.204L32.988 100.163L32.8679 100.138L32.7185 100.108L32.6111 99.9984L32.2996 99.6811L32.2742 99.6557C32.4468 99.9832 32.5521 100.312 32.5701 100.641C32.5999 101.187 32.3871 101.662 32.0046 102.051L32.0037 102.05C31.5409 102.534 30.9513 102.72 30.323 102.594C29.7264 102.475 29.143 102.087 28.6033 101.538V101.537C27.9793 100.925 27.4962 100.146 27.3015 99.4389L27.2673 99.3129L27.2986 99.1869L27.322 99.0893L27.3826 98.8451L27.615 98.7475L28.0222 98.5766L28.1648 98.517L28.3162 98.5473L28.6003 98.6049L28.864 98.4418L29.0447 98.3295L29.2517 98.3822L29.3474 98.4066L29.4294 98.4272C29.3589 98.2153 29.3172 98.0029 29.3093 97.7914C29.2888 97.2376 29.5009 96.7502 29.8933 96.3481L30.0681 96.184C30.4899 95.8299 31.0104 95.6852 31.573 95.767ZM29.9548 99.5004L29.9197 99.6772L29.78 99.7914L29.448 100.06L29.4382 100.122C29.5219 100.226 29.6151 100.334 29.7009 100.421C30.0424 100.769 30.2876 100.921 30.4431 100.967C30.5112 100.987 30.5477 100.983 30.5662 100.978C30.5844 100.973 30.6187 100.96 30.6677 100.911C30.7297 100.847 30.752 100.806 30.7605 100.784C30.7672 100.766 30.7716 100.746 30.7664 100.708C30.752 100.608 30.6744 100.424 30.4294 100.091L30.4226 100.082L29.9675 99.433L29.9548 99.5004ZM31.5085 97.4154C31.4065 97.3901 31.3203 97.3987 31.1921 97.5277C31.0728 97.6591 31.0654 97.73 31.071 97.7875C31.0784 97.8616 31.1184 97.9832 31.2419 98.1742L31.3953 98.39L31.4021 98.3988L31.9021 99.0785H31.9031C31.9878 99.1906 32.0641 99.3039 32.1345 99.4164L32.1628 99.2494L32.1863 99.1029L32.2117 98.9467L32.323 98.8334L32.6697 98.4799L32.6765 98.4379C32.5547 98.2823 32.428 98.1261 32.2517 97.9467C31.9113 97.6002 31.6664 97.4548 31.5085 97.4154Z" fill="white" stroke="black"/>
<path d="M27.4917 91.3953L27.4321 91.5066L26.1626 93.8494L28.4517 92.5671L28.6255 92.4695L28.9155 92.5427L29.0444 92.5759L29.1411 92.6697L29.6929 93.2068L29.8442 93.3542V93.8044L29.7925 93.9089L27.6997 98.1453L27.7056 98.196L27.7563 98.2478L27.9419 98.4353L27.8901 98.6941L27.8667 98.8162L27.8354 98.9734L27.7192 99.0837L27.3833 99.4011L27.2388 99.5378H26.7368L26.5903 99.3904L25.1265 97.9246L24.98 97.7791V97.2341L25.1362 97.0857L25.4722 96.7683L25.6167 96.6316H26.1597L26.3091 96.7986L26.3618 96.8572L26.3716 96.8552L27.2388 95.1746L24.6685 96.615L24.4946 96.7126L24.3003 96.6638L24.2046 96.6394L24.0688 96.6052L23.9712 96.5056L23.5151 96.0408L23.4106 95.9343L23.3813 95.7869L23.3569 95.6648L23.3228 95.488L23.4087 95.3289L24.854 92.6746L23.1929 93.572L23.1851 93.6179L23.1968 93.6296L23.3403 93.7761V94.283L23.1968 94.4285L22.8608 94.7703L22.7134 94.9207H22.1743L22.0269 94.7703L20.7075 93.4265L20.564 93.281V92.7605L20.6948 92.6169L21.0063 92.2751L21.1558 92.1121H21.7056L21.853 92.2625L21.8745 92.2849L21.9321 92.2917L26.0903 90.1404L26.2593 90.0535L26.4429 90.1003L26.5396 90.1248L26.6694 90.158L26.7651 90.2517L27.3413 90.8132L27.4917 90.9607V91.3953Z" fill="white" stroke="black"/>
<mask id="path-13-outside-1_6_128" maskUnits="userSpaceOnUse" x="11.616" y="8.47725" width="103" height="105" fill="black">
<rect fill="white" x="11.616" y="8.47725" width="103" height="105"/>
<path d="M104.704 59.5098C104.128 37.0343 86.368 18.8339 64.312 18.0766L63.544 9.50167C63.328 9.50167 63.088 9.47725 62.872 9.47725C62.752 9.47725 62.656 9.47725 62.536 9.47725L61.768 18.0277C39.688 18.6385 21.808 36.7167 21.064 59.1678L12.64 59.9495C12.64 60.1694 12.616 60.4137 12.616 60.6336C12.616 60.7557 12.616 60.8535 12.616 60.9756L21.016 61.7574C21.592 84.2329 39.376 102.433 61.408 103.191L62.176 111.765C62.392 111.765 62.632 111.79 62.848 111.79C62.968 111.79 63.064 111.79 63.184 111.79L63.952 103.239C86.032 102.653 103.912 84.5505 104.656 62.1238L113.08 61.3421C113.08 61.1222 113.104 60.8779 113.104 60.658C113.104 60.5359 113.104 60.4381 113.104 60.316L104.704 59.5098ZM96.64 36.6434C100.024 41.5538 102.376 47.2215 103.456 53.3535L101.464 53.7199C100.456 47.9056 98.2 42.5066 94.9839 37.8404L96.64 36.6434ZM70.072 19.347C76.096 20.4463 81.664 22.8404 86.488 26.2851L85.336 27.9707C80.752 24.6971 75.448 22.4007 69.736 21.3746L70.072 19.347ZM101.368 59.1922L100.192 59.0701C99.4 39.4528 83.9679 23.6222 64.744 22.645L64.624 21.4479C84.5919 22.4007 100.648 38.8421 101.368 59.1922ZM90.376 50.5929C89.824 49.0294 89.128 47.5147 88.336 46.0733L90.976 41.6515L85.936 42.4333C85.408 41.7492 84.832 41.0652 84.256 40.4056L88.24 35.3241C88.36 35.1776 88.336 34.9821 88.216 34.86C88.096 34.7378 87.88 34.7378 87.76 34.8844L83.032 39.1352C82.312 38.4512 81.544 37.7671 80.752 37.1564L81.52 32.0261L77.176 34.7378C75.76 33.9316 74.272 33.2232 72.736 32.6613L71.92 27.5798L68.632 31.5131C67.624 31.3176 66.592 31.1466 65.56 31.0733L64.84 23.3046C83.704 24.3062 98.8479 39.8193 99.6639 59.0945L92.032 58.3616C91.936 57.1645 91.768 55.9919 91.552 54.8437L95.392 51.4968L90.376 50.5929ZM91.552 66.3991C91.744 65.3974 91.8879 64.3958 91.9839 63.3453L99.616 62.6124C98.632 81.8144 83.392 97.2297 64.456 98.0603L65.176 90.2916C66.304 90.2183 67.384 90.0473 68.464 89.8274L71.728 93.785L72.592 88.7036C74.152 88.1417 75.616 87.4577 77.056 86.6515L81.376 89.3876L80.656 84.2574C81.4 83.671 82.096 83.0603 82.792 82.4251L87.784 86.4805C87.9279 86.6026 88.12 86.5782 88.24 86.4561C88.36 86.3339 88.36 86.114 88.216 85.9919L84.04 81.1792C84.76 80.4219 85.408 79.6157 86.032 78.8095L91.072 79.5668L88.408 75.1694C89.2 73.7281 89.896 72.2134 90.448 70.6255L95.44 69.7704L91.552 66.3991ZM81.04 83.0603C79.888 84.0375 78.664 84.917 77.368 85.6987L73.744 79.2981C74.68 78.7362 75.568 78.101 76.384 77.3925L81.04 83.0603ZM77.896 78.4919L82.24 82.0098C81.976 82.2785 81.688 82.5228 81.424 82.7671L77.896 78.4919ZM70.384 80.9349C71.416 80.544 72.376 80.0798 73.312 79.5424L76.936 85.943C75.64 86.6759 74.272 87.3355 72.856 87.8974L70.384 80.9349ZM72.4 88.0684C71.008 88.5815 69.544 88.9723 68.056 89.2655L66.784 82.0098C67.864 81.8144 68.896 81.5212 69.904 81.1548L72.4 88.0684ZM66.088 80.4463L67.072 69.746L75.184 76.2932C72.592 78.4186 69.472 79.86 66.088 80.4463ZM66.328 82.0587L67.6 89.3388C66.832 89.461 66.04 89.5587 65.248 89.632L65.92 82.1075C66.064 82.1075 66.184 82.0831 66.328 82.0587ZM84.568 79.5179C84.256 79.9088 83.944 80.2508 83.584 80.6173L79.096 74.8518L84.568 79.5179ZM79.336 74.4121C80.008 73.5815 80.632 72.6531 81.184 71.7248L87.472 75.4137C86.704 76.7329 85.84 77.9789 84.88 79.1515L79.336 74.4121ZM91.0239 65.4707L83.872 64.1759C83.872 64.1515 83.872 64.1515 83.896 64.1026L91.288 63.3942C91.216 64.1026 91.144 64.7867 91.0239 65.4707ZM90.952 65.9349C90.688 67.4495 90.28 68.9153 89.776 70.3567L82.96 67.8404C83.32 66.8144 83.584 65.7639 83.8 64.6645L90.952 65.9349ZM89.632 70.8209C89.104 72.2622 88.456 73.6548 87.736 74.974L81.448 71.2851C81.976 70.3323 82.432 69.3307 82.816 68.3046L89.632 70.8209ZM78.016 73.4593L71.632 65.2753L82.24 64.2737C81.616 67.7183 80.152 70.8698 78.016 73.4593ZM83.608 82.2541L67.36 69.1108L65.68 65.6662C66.016 65.4707 66.352 65.2264 66.64 64.9821L83.608 82.2541ZM76.36 43.8991C75.544 43.215 74.632 42.5798 73.72 42.018L77.344 35.6173C78.64 36.3991 79.864 37.2785 81.016 38.2557L76.36 43.8991ZM81.4 38.5489C81.784 38.8665 82.12 39.1841 82.48 39.5505L76.816 44.1189L81.4 38.5489ZM73.312 41.7492C72.376 41.2118 71.392 40.7476 70.384 40.3567L72.856 33.4186C74.272 33.9561 75.64 34.6157 76.936 35.3486L73.312 41.7492ZM69.928 40.1857C68.92 39.8193 67.888 39.5505 66.808 39.3307L68.08 32.075C69.568 32.3437 71.008 32.759 72.424 33.272L69.928 40.1857ZM66.328 39.2574C66.304 39.2574 66.304 39.2574 66.256 39.2329L65.56 31.7085C66.232 31.7818 66.904 31.8551 67.576 31.9772L66.328 39.2574ZM75.448 45.2183L67.408 51.7167L66.424 40.9186C69.808 41.5538 72.88 43.0929 75.448 45.2183ZM84.088 39.5261L71.176 56.0652L67.792 57.7753C67.6 57.4333 67.36 57.0912 67.12 56.7981L84.088 39.5261ZM80.392 45.3893L83.848 40.9675C84.112 41.2362 84.352 41.5294 84.592 41.7981L80.392 45.3893ZM84.904 42.1645C85.864 43.3372 86.728 44.5831 87.496 45.9023L81.208 49.5913C80.656 48.6385 80.032 47.7346 79.336 46.904L84.904 42.1645ZM78.232 48.1255C80.32 50.7639 81.736 53.9153 82.312 57.3844L71.8 56.3828L78.232 48.1255ZM81.424 50.031L87.712 46.3421C88.432 47.6613 89.08 49.0538 89.632 50.4952L82.816 53.0114C82.408 51.961 81.952 50.9838 81.424 50.031ZM89.776 50.9349C90.28 52.3518 90.664 53.8421 90.952 55.3567L83.824 56.6515C83.632 55.5522 83.3439 54.5017 82.984 53.4756L89.776 50.9349ZM91.0239 55.8453C91.144 56.6271 91.24 57.4333 91.312 58.2394L83.92 57.5554C83.896 57.4333 83.872 57.2867 83.848 57.1401L91.0239 55.8453ZM63.208 13.0685L66.76 51.9121L65.08 55.3323C64.504 55.088 63.856 54.917 63.184 54.8926L63.208 13.0685ZM55.672 19.347L56.032 21.3746C50.32 22.4007 45.016 24.6971 40.432 27.9707L39.28 26.2851C44.08 22.8404 49.648 20.4463 55.672 19.347ZM61.432 21.4724L61.312 22.6694C42.04 23.4756 26.488 39.1841 25.528 58.7525L24.352 58.8746C25.288 38.5489 41.44 22.2053 61.432 21.4724ZM35.368 70.7232C35.92 72.2867 36.616 73.8013 37.408 75.2427L34.768 79.6645L39.808 78.8828C40.336 79.5668 40.912 80.2509 41.488 80.9105L37.504 85.9919C37.384 86.1385 37.408 86.3339 37.528 86.4561C37.648 86.5782 37.864 86.5782 37.984 86.4316L42.712 82.1808C43.432 82.8649 44.2 83.5489 44.992 84.1596L44.224 89.2899L48.568 86.5782C49.984 87.3844 51.472 88.0929 53.008 88.6547L53.824 93.7362L57.112 89.803C58.12 89.9984 59.152 90.1694 60.184 90.2427L60.904 98.0114C42.04 97.0098 26.896 81.4724 26.08 62.2215L33.712 62.9544C33.808 64.1515 33.976 65.3242 34.192 66.4724L30.352 69.8193L35.368 70.7232ZM40.84 79.1515C39.88 77.9789 39.016 76.7329 38.248 75.4137L44.536 71.7248C45.088 72.6776 45.712 73.5815 46.408 74.4121L40.84 79.1515ZM45.352 75.9267L41.896 80.3486C41.632 80.0798 41.392 79.7867 41.152 79.5179L45.352 75.9267ZM43.432 63.9316L53.944 64.9333L47.512 73.1906C45.424 70.5522 43.984 67.4007 43.432 63.9316ZM44.32 71.2851L38.032 74.974C37.312 73.6548 36.664 72.2622 36.112 70.8209L42.928 68.3046C43.336 69.3307 43.768 70.3323 44.32 71.2851ZM35.944 70.3812C35.44 68.9642 35.056 67.474 34.768 65.9593L41.896 64.6645C42.088 65.7639 42.376 66.8144 42.736 67.8404L35.944 70.3812ZM34.696 65.4707C34.576 64.6889 34.48 63.8828 34.408 63.0766L41.8 63.7606C41.824 63.8828 41.848 64.0294 41.872 64.1759L34.696 65.4707ZM52.864 87.8974C51.448 87.36 50.08 86.7004 48.784 85.9675L52.408 79.5668C53.344 80.1043 54.328 80.5684 55.336 80.9593L52.864 87.8974ZM55.792 81.1303C56.8 81.4968 57.832 81.7655 58.912 81.9854L57.64 89.2411C56.152 88.9723 54.712 88.557 53.296 88.044L55.792 81.1303ZM48.376 85.6987C47.08 84.917 45.856 84.0375 44.704 83.0603L49.36 77.3925C50.176 78.0766 51.088 78.7117 52 79.2736L48.376 85.6987ZM44.32 82.7671C43.936 82.4495 43.6 82.132 43.24 81.7655L48.904 77.1971L44.32 82.7671ZM58.144 89.3388L59.416 82.0587C59.44 82.0587 59.44 82.0587 59.488 82.0831L60.184 89.6075C59.488 89.5342 58.816 89.4365 58.144 89.3388ZM50.296 76.0733L58.336 69.575L59.32 80.373C55.936 79.7622 52.84 78.2232 50.296 76.0733ZM41.656 81.7899L54.568 65.2509L57.952 63.5408C58.144 63.8828 58.384 64.2248 58.624 64.518L41.656 81.7899ZM34.792 55.3812C35.056 53.8665 35.464 52.4007 35.968 50.9593L42.784 53.4756C42.424 54.5017 42.16 55.5522 41.944 56.6515L34.792 55.3812ZM41.848 57.1401C41.848 57.1645 41.848 57.1645 41.824 57.2134L34.432 57.9219C34.504 57.2378 34.576 56.5538 34.696 55.8698L41.848 57.1401ZM36.112 50.4707C36.64 49.0294 37.288 47.6368 38.008 46.3176L44.296 50.0066C43.768 50.9593 43.312 51.9609 42.928 52.987L36.112 50.4707ZM46.408 46.904C45.736 47.7346 45.112 48.6629 44.56 49.5913L38.272 45.9023C39.04 44.5831 39.904 43.3372 40.864 42.1645L46.408 46.904ZM41.152 41.7981C41.464 41.4072 41.776 41.0652 42.136 40.6987L46.624 46.4642L41.152 41.7981ZM47.728 47.8567L54.112 56.0408L43.504 57.0424C44.128 53.5977 45.592 50.4463 47.728 47.8567ZM42.112 39.0619L58.36 52.2053L60.04 55.6499C59.704 55.8453 59.368 56.0896 59.08 56.3339L42.112 39.0619ZM55.792 40.1857L53.32 33.2232C54.712 32.7101 56.176 32.3193 57.664 32.0261L58.936 39.2818C57.856 39.5505 56.824 39.8437 55.792 40.1857ZM59.656 40.8698L58.672 51.5701L50.56 45.0228C53.152 42.8974 56.248 41.4561 59.656 40.8698ZM55.36 40.3567C54.328 40.7476 53.368 41.2118 52.432 41.7492L48.784 35.373C50.08 34.6401 51.448 33.9805 52.864 33.4186L55.36 40.3567ZM52 42.018C51.064 42.5798 50.176 43.215 49.36 43.9235L44.68 38.2557C45.832 37.2785 47.056 36.3991 48.352 35.6173L52 42.018ZM47.848 42.8241L43.504 39.3062C43.768 39.0375 44.056 38.7932 44.32 38.5489L47.848 42.8241ZM59.8 39.2085C59.68 39.2329 59.536 39.2574 59.392 39.2818L58.12 32.0017C58.888 31.8795 59.68 31.7818 60.472 31.7085L59.8 39.2085ZM57.256 31.4642L53.992 27.5066L53.128 32.588C51.568 33.1499 50.104 33.8339 48.664 34.6401L44.344 31.904L45.064 37.0342C44.32 37.6206 43.624 38.2313 42.928 38.8665L37.936 34.8111C37.792 34.689 37.6 34.7134 37.48 34.8355C37.36 34.9577 37.36 35.1776 37.504 35.2997L41.68 40.1124C40.96 40.8698 40.312 41.6759 39.688 42.4821L34.648 41.7248L37.312 46.1222C36.52 47.5636 35.824 49.0782 35.272 50.6662L30.28 51.5212L34.144 54.8681C33.952 55.8698 33.808 56.8714 33.712 57.9219L26.08 58.6548C27.064 39.4528 42.328 24.0375 61.24 23.2069L60.52 30.9756C59.44 31.0978 58.36 31.2443 57.256 31.4642ZM29.104 36.6434L30.76 37.816C27.544 42.4821 25.288 47.8811 24.28 53.6955L22.288 53.329C23.344 47.2215 25.72 41.5538 29.104 36.6434ZM16.12 60.316L54.28 56.7004L57.64 58.4105C57.4 58.9968 57.232 59.6564 57.208 60.3404L16.12 60.316ZM29.104 84.6727C25.72 79.7623 23.368 74.0945 22.288 67.9626L24.28 67.5961C25.288 73.4105 27.544 78.8095 30.76 83.4756L29.104 84.6727ZM55.672 101.969C49.648 100.87 44.08 98.4756 39.256 95.031L40.408 93.3453C44.992 96.6189 50.296 98.9154 56.008 99.9414L55.672 101.969ZM24.352 62.0994L25.528 62.2215C26.32 81.8388 41.752 97.6694 60.976 98.6466L61.096 99.8437C41.152 98.9153 25.096 82.474 24.352 62.0994ZM62.536 108.248L58.984 69.404L60.664 65.9838C61.24 66.2281 61.888 66.3991 62.56 66.4235L62.536 108.248ZM62.872 65.0798C60.472 65.0798 58.528 63.101 58.528 60.658C58.528 58.215 60.472 56.2362 62.872 56.2362C65.272 56.2362 67.216 58.215 67.216 60.658C67.216 63.101 65.272 65.0798 62.872 65.0798ZM70.072 101.969L69.712 99.9414C75.424 98.9154 80.728 96.6189 85.312 93.3453L86.464 95.031C81.664 98.4756 76.096 100.87 70.072 101.969ZM64.312 99.8437L64.432 98.6466C83.704 97.8404 99.256 82.132 100.216 62.5636L101.392 62.4414C100.456 82.7671 84.304 99.1108 64.312 99.8437ZM96.64 84.6727L94.9839 83.5C98.2 78.8339 100.456 73.4349 101.464 67.6206L103.456 67.987C102.4 74.0945 100 79.7623 96.64 84.6727ZM71.464 64.6157L68.104 62.9056C68.344 62.3192 68.512 61.6597 68.536 60.9756H109.6L71.464 64.6157Z"/>
</mask>
<path d="M104.704 59.5098C104.128 37.0343 86.368 18.8339 64.312 18.0766L63.544 9.50167C63.328 9.50167 63.088 9.47725 62.872 9.47725C62.752 9.47725 62.656 9.47725 62.536 9.47725L61.768 18.0277C39.688 18.6385 21.808 36.7167 21.064 59.1678L12.64 59.9495C12.64 60.1694 12.616 60.4137 12.616 60.6336C12.616 60.7557 12.616 60.8535 12.616 60.9756L21.016 61.7574C21.592 84.2329 39.376 102.433 61.408 103.191L62.176 111.765C62.392 111.765 62.632 111.79 62.848 111.79C62.968 111.79 63.064 111.79 63.184 111.79L63.952 103.239C86.032 102.653 103.912 84.5505 104.656 62.1238L113.08 61.3421C113.08 61.1222 113.104 60.8779 113.104 60.658C113.104 60.5359 113.104 60.4381 113.104 60.316L104.704 59.5098ZM96.64 36.6434C100.024 41.5538 102.376 47.2215 103.456 53.3535L101.464 53.7199C100.456 47.9056 98.2 42.5066 94.9839 37.8404L96.64 36.6434ZM70.072 19.347C76.096 20.4463 81.664 22.8404 86.488 26.2851L85.336 27.9707C80.752 24.6971 75.448 22.4007 69.736 21.3746L70.072 19.347ZM101.368 59.1922L100.192 59.0701C99.4 39.4528 83.9679 23.6222 64.744 22.645L64.624 21.4479C84.5919 22.4007 100.648 38.8421 101.368 59.1922ZM90.376 50.5929C89.824 49.0294 89.128 47.5147 88.336 46.0733L90.976 41.6515L85.936 42.4333C85.408 41.7492 84.832 41.0652 84.256 40.4056L88.24 35.3241C88.36 35.1776 88.336 34.9821 88.216 34.86C88.096 34.7378 87.88 34.7378 87.76 34.8844L83.032 39.1352C82.312 38.4512 81.544 37.7671 80.752 37.1564L81.52 32.0261L77.176 34.7378C75.76 33.9316 74.272 33.2232 72.736 32.6613L71.92 27.5798L68.632 31.5131C67.624 31.3176 66.592 31.1466 65.56 31.0733L64.84 23.3046C83.704 24.3062 98.8479 39.8193 99.6639 59.0945L92.032 58.3616C91.936 57.1645 91.768 55.9919 91.552 54.8437L95.392 51.4968L90.376 50.5929ZM91.552 66.3991C91.744 65.3974 91.8879 64.3958 91.9839 63.3453L99.616 62.6124C98.632 81.8144 83.392 97.2297 64.456 98.0603L65.176 90.2916C66.304 90.2183 67.384 90.0473 68.464 89.8274L71.728 93.785L72.592 88.7036C74.152 88.1417 75.616 87.4577 77.056 86.6515L81.376 89.3876L80.656 84.2574C81.4 83.671 82.096 83.0603 82.792 82.4251L87.784 86.4805C87.9279 86.6026 88.12 86.5782 88.24 86.4561C88.36 86.3339 88.36 86.114 88.216 85.9919L84.04 81.1792C84.76 80.4219 85.408 79.6157 86.032 78.8095L91.072 79.5668L88.408 75.1694C89.2 73.7281 89.896 72.2134 90.448 70.6255L95.44 69.7704L91.552 66.3991ZM81.04 83.0603C79.888 84.0375 78.664 84.917 77.368 85.6987L73.744 79.2981C74.68 78.7362 75.568 78.101 76.384 77.3925L81.04 83.0603ZM77.896 78.4919L82.24 82.0098C81.976 82.2785 81.688 82.5228 81.424 82.7671L77.896 78.4919ZM70.384 80.9349C71.416 80.544 72.376 80.0798 73.312 79.5424L76.936 85.943C75.64 86.6759 74.272 87.3355 72.856 87.8974L70.384 80.9349ZM72.4 88.0684C71.008 88.5815 69.544 88.9723 68.056 89.2655L66.784 82.0098C67.864 81.8144 68.896 81.5212 69.904 81.1548L72.4 88.0684ZM66.088 80.4463L67.072 69.746L75.184 76.2932C72.592 78.4186 69.472 79.86 66.088 80.4463ZM66.328 82.0587L67.6 89.3388C66.832 89.461 66.04 89.5587 65.248 89.632L65.92 82.1075C66.064 82.1075 66.184 82.0831 66.328 82.0587ZM84.568 79.5179C84.256 79.9088 83.944 80.2508 83.584 80.6173L79.096 74.8518L84.568 79.5179ZM79.336 74.4121C80.008 73.5815 80.632 72.6531 81.184 71.7248L87.472 75.4137C86.704 76.7329 85.84 77.9789 84.88 79.1515L79.336 74.4121ZM91.0239 65.4707L83.872 64.1759C83.872 64.1515 83.872 64.1515 83.896 64.1026L91.288 63.3942C91.216 64.1026 91.144 64.7867 91.0239 65.4707ZM90.952 65.9349C90.688 67.4495 90.28 68.9153 89.776 70.3567L82.96 67.8404C83.32 66.8144 83.584 65.7639 83.8 64.6645L90.952 65.9349ZM89.632 70.8209C89.104 72.2622 88.456 73.6548 87.736 74.974L81.448 71.2851C81.976 70.3323 82.432 69.3307 82.816 68.3046L89.632 70.8209ZM78.016 73.4593L71.632 65.2753L82.24 64.2737C81.616 67.7183 80.152 70.8698 78.016 73.4593ZM83.608 82.2541L67.36 69.1108L65.68 65.6662C66.016 65.4707 66.352 65.2264 66.64 64.9821L83.608 82.2541ZM76.36 43.8991C75.544 43.215 74.632 42.5798 73.72 42.018L77.344 35.6173C78.64 36.3991 79.864 37.2785 81.016 38.2557L76.36 43.8991ZM81.4 38.5489C81.784 38.8665 82.12 39.1841 82.48 39.5505L76.816 44.1189L81.4 38.5489ZM73.312 41.7492C72.376 41.2118 71.392 40.7476 70.384 40.3567L72.856 33.4186C74.272 33.9561 75.64 34.6157 76.936 35.3486L73.312 41.7492ZM69.928 40.1857C68.92 39.8193 67.888 39.5505 66.808 39.3307L68.08 32.075C69.568 32.3437 71.008 32.759 72.424 33.272L69.928 40.1857ZM66.328 39.2574C66.304 39.2574 66.304 39.2574 66.256 39.2329L65.56 31.7085C66.232 31.7818 66.904 31.8551 67.576 31.9772L66.328 39.2574ZM75.448 45.2183L67.408 51.7167L66.424 40.9186C69.808 41.5538 72.88 43.0929 75.448 45.2183ZM84.088 39.5261L71.176 56.0652L67.792 57.7753C67.6 57.4333 67.36 57.0912 67.12 56.7981L84.088 39.5261ZM80.392 45.3893L83.848 40.9675C84.112 41.2362 84.352 41.5294 84.592 41.7981L80.392 45.3893ZM84.904 42.1645C85.864 43.3372 86.728 44.5831 87.496 45.9023L81.208 49.5913C80.656 48.6385 80.032 47.7346 79.336 46.904L84.904 42.1645ZM78.232 48.1255C80.32 50.7639 81.736 53.9153 82.312 57.3844L71.8 56.3828L78.232 48.1255ZM81.424 50.031L87.712 46.3421C88.432 47.6613 89.08 49.0538 89.632 50.4952L82.816 53.0114C82.408 51.961 81.952 50.9838 81.424 50.031ZM89.776 50.9349C90.28 52.3518 90.664 53.8421 90.952 55.3567L83.824 56.6515C83.632 55.5522 83.3439 54.5017 82.984 53.4756L89.776 50.9349ZM91.0239 55.8453C91.144 56.6271 91.24 57.4333 91.312 58.2394L83.92 57.5554C83.896 57.4333 83.872 57.2867 83.848 57.1401L91.0239 55.8453ZM63.208 13.0685L66.76 51.9121L65.08 55.3323C64.504 55.088 63.856 54.917 63.184 54.8926L63.208 13.0685ZM55.672 19.347L56.032 21.3746C50.32 22.4007 45.016 24.6971 40.432 27.9707L39.28 26.2851C44.08 22.8404 49.648 20.4463 55.672 19.347ZM61.432 21.4724L61.312 22.6694C42.04 23.4756 26.488 39.1841 25.528 58.7525L24.352 58.8746C25.288 38.5489 41.44 22.2053 61.432 21.4724ZM35.368 70.7232C35.92 72.2867 36.616 73.8013 37.408 75.2427L34.768 79.6645L39.808 78.8828C40.336 79.5668 40.912 80.2509 41.488 80.9105L37.504 85.9919C37.384 86.1385 37.408 86.3339 37.528 86.4561C37.648 86.5782 37.864 86.5782 37.984 86.4316L42.712 82.1808C43.432 82.8649 44.2 83.5489 44.992 84.1596L44.224 89.2899L48.568 86.5782C49.984 87.3844 51.472 88.0929 53.008 88.6547L53.824 93.7362L57.112 89.803C58.12 89.9984 59.152 90.1694 60.184 90.2427L60.904 98.0114C42.04 97.0098 26.896 81.4724 26.08 62.2215L33.712 62.9544C33.808 64.1515 33.976 65.3242 34.192 66.4724L30.352 69.8193L35.368 70.7232ZM40.84 79.1515C39.88 77.9789 39.016 76.7329 38.248 75.4137L44.536 71.7248C45.088 72.6776 45.712 73.5815 46.408 74.4121L40.84 79.1515ZM45.352 75.9267L41.896 80.3486C41.632 80.0798 41.392 79.7867 41.152 79.5179L45.352 75.9267ZM43.432 63.9316L53.944 64.9333L47.512 73.1906C45.424 70.5522 43.984 67.4007 43.432 63.9316ZM44.32 71.2851L38.032 74.974C37.312 73.6548 36.664 72.2622 36.112 70.8209L42.928 68.3046C43.336 69.3307 43.768 70.3323 44.32 71.2851ZM35.944 70.3812C35.44 68.9642 35.056 67.474 34.768 65.9593L41.896 64.6645C42.088 65.7639 42.376 66.8144 42.736 67.8404L35.944 70.3812ZM34.696 65.4707C34.576 64.6889 34.48 63.8828 34.408 63.0766L41.8 63.7606C41.824 63.8828 41.848 64.0294 41.872 64.1759L34.696 65.4707ZM52.864 87.8974C51.448 87.36 50.08 86.7004 48.784 85.9675L52.408 79.5668C53.344 80.1043 54.328 80.5684 55.336 80.9593L52.864 87.8974ZM55.792 81.1303C56.8 81.4968 57.832 81.7655 58.912 81.9854L57.64 89.2411C56.152 88.9723 54.712 88.557 53.296 88.044L55.792 81.1303ZM48.376 85.6987C47.08 84.917 45.856 84.0375 44.704 83.0603L49.36 77.3925C50.176 78.0766 51.088 78.7117 52 79.2736L48.376 85.6987ZM44.32 82.7671C43.936 82.4495 43.6 82.132 43.24 81.7655L48.904 77.1971L44.32 82.7671ZM58.144 89.3388L59.416 82.0587C59.44 82.0587 59.44 82.0587 59.488 82.0831L60.184 89.6075C59.488 89.5342 58.816 89.4365 58.144 89.3388ZM50.296 76.0733L58.336 69.575L59.32 80.373C55.936 79.7622 52.84 78.2232 50.296 76.0733ZM41.656 81.7899L54.568 65.2509L57.952 63.5408C58.144 63.8828 58.384 64.2248 58.624 64.518L41.656 81.7899ZM34.792 55.3812C35.056 53.8665 35.464 52.4007 35.968 50.9593L42.784 53.4756C42.424 54.5017 42.16 55.5522 41.944 56.6515L34.792 55.3812ZM41.848 57.1401C41.848 57.1645 41.848 57.1645 41.824 57.2134L34.432 57.9219C34.504 57.2378 34.576 56.5538 34.696 55.8698L41.848 57.1401ZM36.112 50.4707C36.64 49.0294 37.288 47.6368 38.008 46.3176L44.296 50.0066C43.768 50.9593 43.312 51.9609 42.928 52.987L36.112 50.4707ZM46.408 46.904C45.736 47.7346 45.112 48.6629 44.56 49.5913L38.272 45.9023C39.04 44.5831 39.904 43.3372 40.864 42.1645L46.408 46.904ZM41.152 41.7981C41.464 41.4072 41.776 41.0652 42.136 40.6987L46.624 46.4642L41.152 41.7981ZM47.728 47.8567L54.112 56.0408L43.504 57.0424C44.128 53.5977 45.592 50.4463 47.728 47.8567ZM42.112 39.0619L58.36 52.2053L60.04 55.6499C59.704 55.8453 59.368 56.0896 59.08 56.3339L42.112 39.0619ZM55.792 40.1857L53.32 33.2232C54.712 32.7101 56.176 32.3193 57.664 32.0261L58.936 39.2818C57.856 39.5505 56.824 39.8437 55.792 40.1857ZM59.656 40.8698L58.672 51.5701L50.56 45.0228C53.152 42.8974 56.248 41.4561 59.656 40.8698ZM55.36 40.3567C54.328 40.7476 53.368 41.2118 52.432 41.7492L48.784 35.373C50.08 34.6401 51.448 33.9805 52.864 33.4186L55.36 40.3567ZM52 42.018C51.064 42.5798 50.176 43.215 49.36 43.9235L44.68 38.2557C45.832 37.2785 47.056 36.3991 48.352 35.6173L52 42.018ZM47.848 42.8241L43.504 39.3062C43.768 39.0375 44.056 38.7932 44.32 38.5489L47.848 42.8241ZM59.8 39.2085C59.68 39.2329 59.536 39.2574 59.392 39.2818L58.12 32.0017C58.888 31.8795 59.68 31.7818 60.472 31.7085L59.8 39.2085ZM57.256 31.4642L53.992 27.5066L53.128 32.588C51.568 33.1499 50.104 33.8339 48.664 34.6401L44.344 31.904L45.064 37.0342C44.32 37.6206 43.624 38.2313 42.928 38.8665L37.936 34.8111C37.792 34.689 37.6 34.7134 37.48 34.8355C37.36 34.9577 37.36 35.1776 37.504 35.2997L41.68 40.1124C40.96 40.8698 40.312 41.6759 39.688 42.4821L34.648 41.7248L37.312 46.1222C36.52 47.5636 35.824 49.0782 35.272 50.6662L30.28 51.5212L34.144 54.8681C33.952 55.8698 33.808 56.8714 33.712 57.9219L26.08 58.6548C27.064 39.4528 42.328 24.0375 61.24 23.2069L60.52 30.9756C59.44 31.0978 58.36 31.2443 57.256 31.4642ZM29.104 36.6434L30.76 37.816C27.544 42.4821 25.288 47.8811 24.28 53.6955L22.288 53.329C23.344 47.2215 25.72 41.5538 29.104 36.6434ZM16.12 60.316L54.28 56.7004L57.64 58.4105C57.4 58.9968 57.232 59.6564 57.208 60.3404L16.12 60.316ZM29.104 84.6727C25.72 79.7623 23.368 74.0945 22.288 67.9626L24.28 67.5961C25.288 73.4105 27.544 78.8095 30.76 83.4756L29.104 84.6727ZM55.672 101.969C49.648 100.87 44.08 98.4756 39.256 95.031L40.408 93.3453C44.992 96.6189 50.296 98.9154 56.008 99.9414L55.672 101.969ZM24.352 62.0994L25.528 62.2215C26.32 81.8388 41.752 97.6694 60.976 98.6466L61.096 99.8437C41.152 98.9153 25.096 82.474 24.352 62.0994ZM62.536 108.248L58.984 69.404L60.664 65.9838C61.24 66.2281 61.888 66.3991 62.56 66.4235L62.536 108.248ZM62.872 65.0798C60.472 65.0798 58.528 63.101 58.528 60.658C58.528 58.215 60.472 56.2362 62.872 56.2362C65.272 56.2362 67.216 58.215 67.216 60.658C67.216 63.101 65.272 65.0798 62.872 65.0798ZM70.072 101.969L69.712 99.9414C75.424 98.9154 80.728 96.6189 85.312 93.3453L86.464 95.031C81.664 98.4756 76.096 100.87 70.072 101.969ZM64.312 99.8437L64.432 98.6466C83.704 97.8404 99.256 82.132 100.216 62.5636L101.392 62.4414C100.456 82.7671 84.304 99.1108 64.312 99.8437ZM96.64 84.6727L94.9839 83.5C98.2 78.8339 100.456 73.4349 101.464 67.6206L103.456 67.987C102.4 74.0945 100 79.7623 96.64 84.6727ZM71.464 64.6157L68.104 62.9056C68.344 62.3192 68.512 61.6597 68.536 60.9756H109.6L71.464 64.6157Z" fill="white"/>
<path d="M104.704 59.5098C104.128 37.0343 86.368 18.8339 64.312 18.0766L63.544 9.50167C63.328 9.50167 63.088 9.47725 62.872 9.47725C62.752 9.47725 62.656 9.47725 62.536 9.47725L61.768 18.0277C39.688 18.6385 21.808 36.7167 21.064 59.1678L12.64 59.9495C12.64 60.1694 12.616 60.4137 12.616 60.6336C12.616 60.7557 12.616 60.8535 12.616 60.9756L21.016 61.7574C21.592 84.2329 39.376 102.433 61.408 103.191L62.176 111.765C62.392 111.765 62.632 111.79 62.848 111.79C62.968 111.79 63.064 111.79 63.184 111.79L63.952 103.239C86.032 102.653 103.912 84.5505 104.656 62.1238L113.08 61.3421C113.08 61.1222 113.104 60.8779 113.104 60.658C113.104 60.5359 113.104 60.4381 113.104 60.316L104.704 59.5098ZM96.64 36.6434C100.024 41.5538 102.376 47.2215 103.456 53.3535L101.464 53.7199C100.456 47.9056 98.2 42.5066 94.9839 37.8404L96.64 36.6434ZM70.072 19.347C76.096 20.4463 81.664 22.8404 86.488 26.2851L85.336 27.9707C80.752 24.6971 75.448 22.4007 69.736 21.3746L70.072 19.347ZM101.368 59.1922L100.192 59.0701C99.4 39.4528 83.9679 23.6222 64.744 22.645L64.624 21.4479C84.5919 22.4007 100.648 38.8421 101.368 59.1922ZM90.376 50.5929C89.824 49.0294 89.128 47.5147 88.336 46.0733L90.976 41.6515L85.936 42.4333C85.408 41.7492 84.832 41.0652 84.256 40.4056L88.24 35.3241C88.36 35.1776 88.336 34.9821 88.216 34.86C88.096 34.7378 87.88 34.7378 87.76 34.8844L83.032 39.1352C82.312 38.4512 81.544 37.7671 80.752 37.1564L81.52 32.0261L77.176 34.7378C75.76 33.9316 74.272 33.2232 72.736 32.6613L71.92 27.5798L68.632 31.5131C67.624 31.3176 66.592 31.1466 65.56 31.0733L64.84 23.3046C83.704 24.3062 98.8479 39.8193 99.6639 59.0945L92.032 58.3616C91.936 57.1645 91.768 55.9919 91.552 54.8437L95.392 51.4968L90.376 50.5929ZM91.552 66.3991C91.744 65.3974 91.8879 64.3958 91.9839 63.3453L99.616 62.6124C98.632 81.8144 83.392 97.2297 64.456 98.0603L65.176 90.2916C66.304 90.2183 67.384 90.0473 68.464 89.8274L71.728 93.785L72.592 88.7036C74.152 88.1417 75.616 87.4577 77.056 86.6515L81.376 89.3876L80.656 84.2574C81.4 83.671 82.096 83.0603 82.792 82.4251L87.784 86.4805C87.9279 86.6026 88.12 86.5782 88.24 86.4561C88.36 86.3339 88.36 86.114 88.216 85.9919L84.04 81.1792C84.76 80.4219 85.408 79.6157 86.032 78.8095L91.072 79.5668L88.408 75.1694C89.2 73.7281 89.896 72.2134 90.448 70.6255L95.44 69.7704L91.552 66.3991ZM81.04 83.0603C79.888 84.0375 78.664 84.917 77.368 85.6987L73.744 79.2981C74.68 78.7362 75.568 78.101 76.384 77.3925L81.04 83.0603ZM77.896 78.4919L82.24 82.0098C81.976 82.2785 81.688 82.5228 81.424 82.7671L77.896 78.4919ZM70.384 80.9349C71.416 80.544 72.376 80.0798 73.312 79.5424L76.936 85.943C75.64 86.6759 74.272 87.3355 72.856 87.8974L70.384 80.9349ZM72.4 88.0684C71.008 88.5815 69.544 88.9723 68.056 89.2655L66.784 82.0098C67.864 81.8144 68.896 81.5212 69.904 81.1548L72.4 88.0684ZM66.088 80.4463L67.072 69.746L75.184 76.2932C72.592 78.4186 69.472 79.86 66.088 80.4463ZM66.328 82.0587L67.6 89.3388C66.832 89.461 66.04 89.5587 65.248 89.632L65.92 82.1075C66.064 82.1075 66.184 82.0831 66.328 82.0587ZM84.568 79.5179C84.256 79.9088 83.944 80.2508 83.584 80.6173L79.096 74.8518L84.568 79.5179ZM79.336 74.4121C80.008 73.5815 80.632 72.6531 81.184 71.7248L87.472 75.4137C86.704 76.7329 85.84 77.9789 84.88 79.1515L79.336 74.4121ZM91.0239 65.4707L83.872 64.1759C83.872 64.1515 83.872 64.1515 83.896 64.1026L91.288 63.3942C91.216 64.1026 91.144 64.7867 91.0239 65.4707ZM90.952 65.9349C90.688 67.4495 90.28 68.9153 89.776 70.3567L82.96 67.8404C83.32 66.8144 83.584 65.7639 83.8 64.6645L90.952 65.9349ZM89.632 70.8209C89.104 72.2622 88.456 73.6548 87.736 74.974L81.448 71.2851C81.976 70.3323 82.432 69.3307 82.816 68.3046L89.632 70.8209ZM78.016 73.4593L71.632 65.2753L82.24 64.2737C81.616 67.7183 80.152 70.8698 78.016 73.4593ZM83.608 82.2541L67.36 69.1108L65.68 65.6662C66.016 65.4707 66.352 65.2264 66.64 64.9821L83.608 82.2541ZM76.36 43.8991C75.544 43.215 74.632 42.5798 73.72 42.018L77.344 35.6173C78.64 36.3991 79.864 37.2785 81.016 38.2557L76.36 43.8991ZM81.4 38.5489C81.784 38.8665 82.12 39.1841 82.48 39.5505L76.816 44.1189L81.4 38.5489ZM73.312 41.7492C72.376 41.2118 71.392 40.7476 70.384 40.3567L72.856 33.4186C74.272 33.9561 75.64 34.6157 76.936 35.3486L73.312 41.7492ZM69.928 40.1857C68.92 39.8193 67.888 39.5505 66.808 39.3307L68.08 32.075C69.568 32.3437 71.008 32.759 72.424 33.272L69.928 40.1857ZM66.328 39.2574C66.304 39.2574 66.304 39.2574 66.256 39.2329L65.56 31.7085C66.232 31.7818 66.904 31.8551 67.576 31.9772L66.328 39.2574ZM75.448 45.2183L67.408 51.7167L66.424 40.9186C69.808 41.5538 72.88 43.0929 75.448 45.2183ZM84.088 39.5261L71.176 56.0652L67.792 57.7753C67.6 57.4333 67.36 57.0912 67.12 56.7981L84.088 39.5261ZM80.392 45.3893L83.848 40.9675C84.112 41.2362 84.352 41.5294 84.592 41.7981L80.392 45.3893ZM84.904 42.1645C85.864 43.3372 86.728 44.5831 87.496 45.9023L81.208 49.5913C80.656 48.6385 80.032 47.7346 79.336 46.904L84.904 42.1645ZM78.232 48.1255C80.32 50.7639 81.736 53.9153 82.312 57.3844L71.8 56.3828L78.232 48.1255ZM81.424 50.031L87.712 46.3421C88.432 47.6613 89.08 49.0538 89.632 50.4952L82.816 53.0114C82.408 51.961 81.952 50.9838 81.424 50.031ZM89.776 50.9349C90.28 52.3518 90.664 53.8421 90.952 55.3567L83.824 56.6515C83.632 55.5522 83.3439 54.5017 82.984 53.4756L89.776 50.9349ZM91.0239 55.8453C91.144 56.6271 91.24 57.4333 91.312 58.2394L83.92 57.5554C83.896 57.4333 83.872 57.2867 83.848 57.1401L91.0239 55.8453ZM63.208 13.0685L66.76 51.9121L65.08 55.3323C64.504 55.088 63.856 54.917 63.184 54.8926L63.208 13.0685ZM55.672 19.347L56.032 21.3746C50.32 22.4007 45.016 24.6971 40.432 27.9707L39.28 26.2851C44.08 22.8404 49.648 20.4463 55.672 19.347ZM61.432 21.4724L61.312 22.6694C42.04 23.4756 26.488 39.1841 25.528 58.7525L24.352 58.8746C25.288 38.5489 41.44 22.2053 61.432 21.4724ZM35.368 70.7232C35.92 72.2867 36.616 73.8013 37.408 75.2427L34.768 79.6645L39.808 78.8828C40.336 79.5668 40.912 80.2509 41.488 80.9105L37.504 85.9919C37.384 86.1385 37.408 86.3339 37.528 86.4561C37.648 86.5782 37.864 86.5782 37.984 86.4316L42.712 82.1808C43.432 82.8649 44.2 83.5489 44.992 84.1596L44.224 89.2899L48.568 86.5782C49.984 87.3844 51.472 88.0929 53.008 88.6547L53.824 93.7362L57.112 89.803C58.12 89.9984 59.152 90.1694 60.184 90.2427L60.904 98.0114C42.04 97.0098 26.896 81.4724 26.08 62.2215L33.712 62.9544C33.808 64.1515 33.976 65.3242 34.192 66.4724L30.352 69.8193L35.368 70.7232ZM40.84 79.1515C39.88 77.9789 39.016 76.7329 38.248 75.4137L44.536 71.7248C45.088 72.6776 45.712 73.5815 46.408 74.4121L40.84 79.1515ZM45.352 75.9267L41.896 80.3486C41.632 80.0798 41.392 79.7867 41.152 79.5179L45.352 75.9267ZM43.432 63.9316L53.944 64.9333L47.512 73.1906C45.424 70.5522 43.984 67.4007 43.432 63.9316ZM44.32 71.2851L38.032 74.974C37.312 73.6548 36.664 72.2622 36.112 70.8209L42.928 68.3046C43.336 69.3307 43.768 70.3323 44.32 71.2851ZM35.944 70.3812C35.44 68.9642 35.056 67.474 34.768 65.9593L41.896 64.6645C42.088 65.7639 42.376 66.8144 42.736 67.8404L35.944 70.3812ZM34.696 65.4707C34.576 64.6889 34.48 63.8828 34.408 63.0766L41.8 63.7606C41.824 63.8828 41.848 64.0294 41.872 64.1759L34.696 65.4707ZM52.864 87.8974C51.448 87.36 50.08 86.7004 48.784 85.9675L52.408 79.5668C53.344 80.1043 54.328 80.5684 55.336 80.9593L52.864 87.8974ZM55.792 81.1303C56.8 81.4968 57.832 81.7655 58.912 81.9854L57.64 89.2411C56.152 88.9723 54.712 88.557 53.296 88.044L55.792 81.1303ZM48.376 85.6987C47.08 84.917 45.856 84.0375 44.704 83.0603L49.36 77.3925C50.176 78.0766 51.088 78.7117 52 79.2736L48.376 85.6987ZM44.32 82.7671C43.936 82.4495 43.6 82.132 43.24 81.7655L48.904 77.1971L44.32 82.7671ZM58.144 89.3388L59.416 82.0587C59.44 82.0587 59.44 82.0587 59.488 82.0831L60.184 89.6075C59.488 89.5342 58.816 89.4365 58.144 89.3388ZM50.296 76.0733L58.336 69.575L59.32 80.373C55.936 79.7622 52.84 78.2232 50.296 76.0733ZM41.656 81.7899L54.568 65.2509L57.952 63.5408C58.144 63.8828 58.384 64.2248 58.624 64.518L41.656 81.7899ZM34.792 55.3812C35.056 53.8665 35.464 52.4007 35.968 50.9593L42.784 53.4756C42.424 54.5017 42.16 55.5522 41.944 56.6515L34.792 55.3812ZM41.848 57.1401C41.848 57.1645 41.848 57.1645 41.824 57.2134L34.432 57.9219C34.504 57.2378 34.576 56.5538 34.696 55.8698L41.848 57.1401ZM36.112 50.4707C36.64 49.0294 37.288 47.6368 38.008 46.3176L44.296 50.0066C43.768 50.9593 43.312 51.9609 42.928 52.987L36.112 50.4707ZM46.408 46.904C45.736 47.7346 45.112 48.6629 44.56 49.5913L38.272 45.9023C39.04 44.5831 39.904 43.3372 40.864 42.1645L46.408 46.904ZM41.152 41.7981C41.464 41.4072 41.776 41.0652 42.136 40.6987L46.624 46.4642L41.152 41.7981ZM47.728 47.8567L54.112 56.0408L43.504 57.0424C44.128 53.5977 45.592 50.4463 47.728 47.8567ZM42.112 39.0619L58.36 52.2053L60.04 55.6499C59.704 55.8453 59.368 56.0896 59.08 56.3339L42.112 39.0619ZM55.792 40.1857L53.32 33.2232C54.712 32.7101 56.176 32.3193 57.664 32.0261L58.936 39.2818C57.856 39.5505 56.824 39.8437 55.792 40.1857ZM59.656 40.8698L58.672 51.5701L50.56 45.0228C53.152 42.8974 56.248 41.4561 59.656 40.8698ZM55.36 40.3567C54.328 40.7476 53.368 41.2118 52.432 41.7492L48.784 35.373C50.08 34.6401 51.448 33.9805 52.864 33.4186L55.36 40.3567ZM52 42.018C51.064 42.5798 50.176 43.215 49.36 43.9235L44.68 38.2557C45.832 37.2785 47.056 36.3991 48.352 35.6173L52 42.018ZM47.848 42.8241L43.504 39.3062C43.768 39.0375 44.056 38.7932 44.32 38.5489L47.848 42.8241ZM59.8 39.2085C59.68 39.2329 59.536 39.2574 59.392 39.2818L58.12 32.0017C58.888 31.8795 59.68 31.7818 60.472 31.7085L59.8 39.2085ZM57.256 31.4642L53.992 27.5066L53.128 32.588C51.568 33.1499 50.104 33.8339 48.664 34.6401L44.344 31.904L45.064 37.0342C44.32 37.6206 43.624 38.2313 42.928 38.8665L37.936 34.8111C37.792 34.689 37.6 34.7134 37.48 34.8355C37.36 34.9577 37.36 35.1776 37.504 35.2997L41.68 40.1124C40.96 40.8698 40.312 41.6759 39.688 42.4821L34.648 41.7248L37.312 46.1222C36.52 47.5636 35.824 49.0782 35.272 50.6662L30.28 51.5212L34.144 54.8681C33.952 55.8698 33.808 56.8714 33.712 57.9219L26.08 58.6548C27.064 39.4528 42.328 24.0375 61.24 23.2069L60.52 30.9756C59.44 31.0978 58.36 31.2443 57.256 31.4642ZM29.104 36.6434L30.76 37.816C27.544 42.4821 25.288 47.8811 24.28 53.6955L22.288 53.329C23.344 47.2215 25.72 41.5538 29.104 36.6434ZM16.12 60.316L54.28 56.7004L57.64 58.4105C57.4 58.9968 57.232 59.6564 57.208 60.3404L16.12 60.316ZM29.104 84.6727C25.72 79.7623 23.368 74.0945 22.288 67.9626L24.28 67.5961C25.288 73.4105 27.544 78.8095 30.76 83.4756L29.104 84.6727ZM55.672 101.969C49.648 100.87 44.08 98.4756 39.256 95.031L40.408 93.3453C44.992 96.6189 50.296 98.9154 56.008 99.9414L55.672 101.969ZM24.352 62.0994L25.528 62.2215C26.32 81.8388 41.752 97.6694 60.976 98.6466L61.096 99.8437C41.152 98.9153 25.096 82.474 24.352 62.0994ZM62.536 108.248L58.984 69.404L60.664 65.9838C61.24 66.2281 61.888 66.3991 62.56 66.4235L62.536 108.248ZM62.872 65.0798C60.472 65.0798 58.528 63.101 58.528 60.658C58.528 58.215 60.472 56.2362 62.872 56.2362C65.272 56.2362 67.216 58.215 67.216 60.658C67.216 63.101 65.272 65.0798 62.872 65.0798ZM70.072 101.969L69.712 99.9414C75.424 98.9154 80.728 96.6189 85.312 93.3453L86.464 95.031C81.664 98.4756 76.096 100.87 70.072 101.969ZM64.312 99.8437L64.432 98.6466C83.704 97.8404 99.256 82.132 100.216 62.5636L101.392 62.4414C100.456 82.7671 84.304 99.1108 64.312 99.8437ZM96.64 84.6727L94.9839 83.5C98.2 78.8339 100.456 73.4349 101.464 67.6206L103.456 67.987C102.4 74.0945 100 79.7623 96.64 84.6727ZM71.464 64.6157L68.104 62.9056C68.344 62.3192 68.512 61.6597 68.536 60.9756H109.6L71.464 64.6157Z" stroke="black" stroke-width="2" mask="url(#path-13-outside-1_6_128)"/>
<path d="M62.8718 57.3486C64.6806 57.3486 66.1316 58.8388 66.1316 60.6582C66.1315 62.4775 64.6806 63.9677 62.8718 63.9677C61.0632 63.9676 59.6121 62.4774 59.6121 60.6582C59.6121 58.8389 61.0632 57.3487 62.8718 57.3486Z" fill="white" stroke="black"/>
</svg>
